<?xml version="1.0" encoding="UTF-8"?>
<!DOCTYPE svg PUBLIC "-//W3C//DTD SVG 1.1//EN" "http://www.w3.org/Graphics/SVG/1.1/DTD/svg11.dtd">
<!-- Creator: CorelDRAW 2020 (64-Bit) -->
<svg xmlns="http://www.w3.org/2000/svg" xml:space="preserve" width="109.553mm" height="33.0426mm" version="1.1" style="shape-rendering:geometricPrecision; text-rendering:geometricPrecision; image-rendering:optimizeQuality; fill-rule:evenodd; clip-rule:evenodd"
viewBox="0 0 881.32 265.82"
 xmlns:xlink="http://www.w3.org/1999/xlink"
 xmlns:xodm="http://www.corel.com/coreldraw/odm/2003">
 <defs>
  <style type="text/css">
   <![CDATA[
    .fil1 {fill:#1E1E1E;fill-rule:nonzero}
    .fil0 {fill:#76B900;fill-rule:nonzero}
    .fil3 {fill:white;fill-rule:nonzero}
    .fil2 {fill:white;fill-rule:nonzero}
   ]]>
  </style>
 </defs>
 <g id="Capa_x0020_1">
  <metadata id="CorelCorpID_0Corel-Layer"/>
  <g id="_3050725841408">
   <path class="fil0" d="M314.08 0l0 265.82 -314.08 -0 0 -265.82 314.08 0zm539.44 0l0 265.82 27.8 -0 0 -265.82 -27.8 0z"/>
   <rect class="fil1" x="314.07" width="539.44" height="265.82"/>
   <g>
    <path id="NVIDIA_Logo" class="fil2" d="M139.16 175.54l0 39.98 11.24 0 0 -39.98 -11.24 0 0 0zm-88.87 0l0 39.98 11.4 0 0 -30.45 8.75 -0c2.97,0 5,0.78 6.4,2.19 1.72,1.87 2.5,5 2.5,10.62l0 17.49 11.09 0 0 -22.18c0,-15.77 -10,-17.96 -19.83,-17.96l-20.3 0.31 0 0zm106.98 0l0 39.98 18.27 0c9.68,0 12.96,-1.56 16.4,-5.31 2.5,-2.5 4.06,-8.12 4.06,-14.21 0,-5.62 -1.41,-10.62 -3.59,-13.74 -4.22,-5.62 -10.15,-6.72 -19.21,-6.72l-15.93 0 0 0zm11.24 8.75l4.84 0c7.03,0 11.56,3.12 11.56,11.4 0,8.28 -4.53,11.4 -11.56,11.4l-4.84 0 0 -22.8 0 0zm-45.76 -8.75l-9.37 31.7 -9.06 -31.7 -12.18 0 12.96 39.98 16.24 0 12.96 -39.98c-0,0 -11.56,0 -11.56,0zm78.4 39.98l11.24 0 0 -39.98 -11.24 0 0 39.98zm31.7 -39.98l-15.77 39.98 11.09 0 2.5 -7.03 18.59 -0 2.34 7.03 12.03 0 -15.93 -39.98 -14.84 0 0 0zm7.34 7.34l6.87 18.74 -13.9 0 7.03 -18.74 0 0zm-116.04 -100.89l0 -9.53c0.94,0 1.87,-0.16 2.81,-0.16 26.24,-0.78 43.42,22.49 43.42,22.49 0,0 -18.59,25.77 -38.42,25.77 -2.81,0 -5.47,-0.47 -7.81,-1.25l0 -29.05c10.15,1.25 12.34,5.78 18.43,15.93l13.59 -11.56c0,0 -10,-13.12 -26.86,-13.12 -1.72,0.16 -3.44,0.31 -5.15,0.47l0 0zm0 -31.7l0 14.37c0.94,0 1.87,-0.16 2.81,-0.16 36.55,-1.25 60.29,29.99 60.29,29.99 0,0 -27.33,33.27 -55.76,33.27 -2.65,0 -5,-0.31 -7.34,-0.63l0 8.9c2.03,0.31 4.06,0.47 6.09,0.47 26.55,0 45.6,-13.59 64.19,-29.52 3.12,2.5 15.62,8.43 18.27,11.09 -17.65,14.84 -58.72,26.71 -81.99,26.71 -2.19,0 -4.37,-0.16 -6.56,-0.31l0 12.49 100.74 -0 0 -106.2 -100.74 -0.47 0 0zm0 69.03l0 7.5c-24.52,-4.37 -31.24,-29.83 -31.24,-29.83 0,0 11.71,-12.96 31.24,-15.15l0 8.28 0 0c-10.31,-1.25 -18.27,8.28 -18.27,8.28 0,0 4.53,16.4 18.27,20.93l0 0zm-43.57 -23.27c0,0 14.52,-21.4 43.57,-23.58l0 -7.81c-32.17,2.5 -59.97,29.83 -59.97,29.83 0,0 15.77,45.45 59.97,49.66l0 -8.28c-32.49,-4.06 -43.57,-39.83 -43.57,-39.83z"/>
   </g>
   <polygon class="fil3" points="508.99,121.19 508.99,94.18 532.73,94.18 534.44,81.84 508.99,81.84 508.99,64.03 540.69,64.03 540.69,51.69 494.46,51.69 494.46,121.19 "/>
   <path class="fil3" d="M394.35 122.6l0.78 0c5.31,0 10.31,-0.63 14.99,-2.03 4.69,-1.41 8.59,-3.44 12.03,-6.09l0 -32.02 -27.17 0 -1.72 12.18 14.84 0 0 12.81c-1.72,0.78 -3.75,1.41 -6.09,1.72 -2.34,0.47 -4.84,0.63 -7.34,0.63l-0.62 0c-6.4,0 -11.09,-1.72 -14.06,-5 -2.65,-3.28 -4.22,-8.59 -4.22,-15.77l0 -4.53c0,-7.03 1.56,-12.34 4.53,-16.09 2.97,-3.75 7.34,-5.47 13.12,-5.47l0.63 -0c7.34,0 11.87,2.81 13.74,8.59l13.28 -4.69c-2.03,-5.31 -5.31,-9.53 -10,-12.34 -4.69,-2.81 -10.31,-4.37 -17.02,-4.37l-0.94 0c-6.72,0 -12.49,1.41 -17.18,4.06 -4.84,2.81 -8.43,6.72 -10.93,11.87 -2.5,5.15 -3.9,11.24 -3.9,18.59l0 3.9c0.16,22.8 11.24,34.05 33.27,34.05z"/>
   <polygon class="fil3" points="803.23,121.19 803.23,109.01 770.9,109.01 770.9,92.3 794.95,92.3 796.67,79.96 770.9,79.96 770.9,64.03 802.6,64.03 802.6,51.69 756.37,51.69 756.37,121.19 "/>
   <path class="fil3" d="M637.83 121.19l0 -24.83 10.78 0 13.74 24.83 15.77 0 -15.15 -27.02c4.06,-1.72 7.34,-4.06 9.53,-7.34 2.34,-3.28 3.44,-7.18 3.44,-11.87l0 -1.87c0,-6.72 -2.34,-11.87 -7.18,-15.77 -4.69,-3.75 -11.09,-5.62 -19.21,-5.62l-26.39 0 0 69.66 14.68 0 0 -0.16zm11.4 -57.01c3.44,0 6.4,0.63 8.75,2.03 2.34,1.41 3.44,3.59 3.44,6.56l0 2.5c0,3.12 -1.09,5.31 -3.44,6.72 -2.34,1.25 -5.31,2.03 -8.75,2.03l-11.4 0 0 -19.68 11.4 0 0 -0.16z"/>
   <path class="fil3" d="M413.56 181.17c2.34,-3.28 3.44,-7.18 3.44,-11.87l0 -1.87c0,-6.72 -2.34,-11.87 -7.18,-15.77 -4.69,-3.75 -11.09,-5.62 -19.21,-5.62l-26.39 0 0 69.66 14.52 0 0 -24.83 10.78 -0 13.74 24.83 15.77 0 -15.15 -27.02c4.22,-1.87 7.5,-4.22 9.68,-7.5zm-11.09 -11.71c0,3.12 -1.09,5.31 -3.44,6.72 -2.34,1.25 -5.31,2.03 -8.75,2.03l-11.4 0 0 -19.68 11.4 0c3.44,0 6.4,0.63 8.75,2.03 2.34,1.41 3.44,3.59 3.44,6.56l0 2.34z"/>
   <path class="fil3" d="M717.17 122.6l0.78 0c7.03,0 12.96,-1.56 17.8,-4.53 4.84,-3.12 8.12,-7.34 10.15,-12.81l-13.28 -5.15c-1.09,3.44 -2.81,5.93 -5.47,7.5 -2.65,1.56 -5.62,2.34 -9.21,2.34l-0.62 0c-5.62,0 -10,-1.72 -12.81,-5.15 -2.97,-3.44 -4.37,-8.75 -4.37,-16.09l0 -4.53c0,-7.03 1.56,-12.34 4.53,-15.93 3.12,-3.44 7.34,-5.31 12.65,-5.31l0.62 0c3.44,0 6.56,0.78 9.06,2.34 2.5,1.56 4.22,4.06 5.15,7.5l13.59 -4.84c-1.87,-5.62 -5.31,-10.15 -10,-13.28 -4.69,-3.12 -10.62,-4.69 -17.65,-4.69l-0.78 -0c-6.72,0 -12.49,1.41 -17.18,4.22 -4.69,2.81 -8.28,6.72 -10.78,11.87 -2.5,5.15 -3.75,11.24 -3.75,18.27l0 4.06c0,10.78 2.65,19.21 8.12,25.3 5.31,5.93 13.12,8.9 23.43,8.9z"/>
   <polygon class="fil3" points="547.72,145.87 530.85,145.87 515.86,168.83 500.86,145.87 483.68,145.87 506.8,180.23 482.9,215.53 499.61,215.53 515.54,191.32 531.32,215.53 548.5,215.53 524.6,180.23 "/>
   <path class="fil3" d="M608.47 106.67c2.5,-5.15 3.9,-11.24 3.9,-18.12l0 -3.9c0,-7.03 -1.25,-13.12 -3.9,-18.27 -2.5,-5.15 -6.25,-9.06 -11.09,-11.87 -4.84,-2.81 -10.62,-4.22 -17.34,-4.22l-0.94 0c-6.72,0 -12.49,1.41 -17.34,4.22 -4.84,2.81 -8.43,6.72 -11.09,11.87 -2.5,5.15 -3.9,11.24 -3.9,18.27l0 3.75c0,7.03 1.25,13.12 3.9,18.12 2.5,5.15 6.25,9.06 11.09,11.87 4.84,2.81 10.62,4.22 17.34,4.22l0.94 -0c6.72,0 12.49,-1.41 17.34,-4.22 4.84,-2.65 8.59,-6.56 11.09,-11.71zm-28.42 3.28l-0.78 0c-5.47,0 -9.68,-1.72 -12.96,-5.31 -3.28,-3.44 -4.84,-8.75 -4.84,-15.93l0 -4.53c0,-7.03 1.56,-12.34 4.84,-15.93 3.28,-3.44 7.5,-5.31 12.96,-5.31l0.78 0c5.47,0 9.68,1.72 12.96,5.31 3.28,3.59 4.84,8.75 4.84,15.93l0 4.53c0,7.03 -1.56,12.34 -4.84,15.93 -3.28,3.59 -7.5,5.31 -12.96,5.31z"/>
   <polygon class="fil3" points="449.33,92.3 473.38,92.3 475.09,79.96 449.33,79.96 449.33,64.03 481.03,64.03 481.03,51.69 434.8,51.69 434.8,121.19 481.65,121.19 481.65,109.01 449.33,109.01 "/>
   <polygon class="fil3" points="422,158.52 442.92,158.52 442.92,215.53 457.45,215.53 457.45,158.52 478.37,158.52 478.37,145.87 422,145.87 "/>
  </g>
 </g>
</svg>
