<?xml version="1.0" encoding="UTF-8"?>
<!DOCTYPE svg PUBLIC "-//W3C//DTD SVG 1.1//EN" "http://www.w3.org/Graphics/SVG/1.1/DTD/svg11.dtd">
<!-- Creator: CorelDRAW 2020 (64-Bit) -->
<svg xmlns="http://www.w3.org/2000/svg" xml:space="preserve" width="32.2689mm" height="5.4395mm" version="1.1" style="shape-rendering:geometricPrecision; text-rendering:geometricPrecision; image-rendering:optimizeQuality; fill-rule:evenodd; clip-rule:evenodd"
viewBox="0 0 303.1 51.09"
 xmlns:xlink="http://www.w3.org/1999/xlink"
 xmlns:xodm="http://www.corel.com/coreldraw/odm/2003">
 <defs>
  <style type="text/css">
   <![CDATA[
    .fil1 {fill:#77B900;fill-rule:nonzero}
    .fil0 {fill:white;fill-rule:nonzero}
   ]]>
  </style>
 </defs>
 <g id="Capa_x0020_1">
  <metadata id="CorelCorpID_0Corel-Layer"/>
  <g id="_3050721237296">
   <g>
    <path class="fil0" d="M301.58 40.44c0,2.33 -1.71,3.89 -3.73,3.89l0 -0.01c-2.08,0.01 -3.76,-1.55 -3.76,-3.87 0,-2.32 1.68,-3.88 3.76,-3.88 2.02,-0 3.73,1.56 3.73,3.88zm1.51 0c0,-3.19 -2.48,-5.04 -5.24,-5.04 -2.78,0 -5.26,1.85 -5.26,5.04 0,3.19 2.48,5.05 5.26,5.05 2.76,0 5.24,-1.86 5.24,-5.05l0 0zm-6.11 0.43l0.56 0 1.3 2.28 1.43 0 -1.44 -2.38c0.74,-0.05 1.36,-0.41 1.36,-1.41 0,-1.25 -0.86,-1.65 -2.31,-1.65l-2.1 0 0 5.43 1.21 0 0 -2.28 0 0zm0 -0.92l0 -1.31 0.84 0c0.46,0 1.08,0.04 1.08,0.6 0,0.61 -0.32,0.71 -0.86,0.71l-1.06 0 0 0zm-29.19 -27.31l6.54 17.88 -13.27 0 6.74 -17.88 0 0zm-7 -6.96l-15.06 38.16 10.64 0 2.38 -6.74 17.83 0 2.26 6.74 11.55 0 -15.18 -38.17 -14.41 0 0 0zm-30.24 38.18l10.79 0 0 -38.19 -10.79 -0 0 38.19zm-74.91 -38.19l-9 30.27 -8.62 -30.27 -11.64 -0 12.32 38.19 15.55 0 12.42 -38.19 -11.01 0zm43.62 8.32l4.64 0c6.73,0 11.08,3.02 11.08,10.86 0,7.84 -4.35,10.86 -11.08,10.86l-4.64 0 0 -21.72zm-10.7 -8.32l0 38.19 17.49 0c9.32,0 12.37,-1.55 15.66,-5.02 2.32,-2.44 3.83,-7.8 3.83,-13.65 0,-5.37 -1.27,-10.16 -3.49,-13.14 -4,-5.33 -9.75,-6.38 -18.35,-6.38l-15.14 0zm-102.22 -0.05l0 38.24 10.88 0 0 -29.04 8.43 0c2.79,0 4.78,0.7 6.13,2.13 1.71,1.82 2.4,4.75 2.4,10.11l0 16.79 10.55 0 0 -21.13c0,-15.08 -9.61,-17.11 -19.02,-17.11l-19.37 0zm84.85 0.05l0 38.19 10.79 0 0 -38.19 -10.79 0z"/>
   </g>
   <g>
    <path class="fil1" d="M7.89 22c0,0 6.98,-10.3 20.92,-11.37l0 -3.74c-15.44,1.24 -28.81,14.32 -28.81,14.32 0,0 7.57,21.89 28.81,23.89l0 -3.97c-15.58,-1.96 -20.92,-19.14 -20.92,-19.14zm20.92 11.24l0 3.64c-11.78,-2.1 -15.05,-14.34 -15.05,-14.34 0,0 5.66,-6.27 15.05,-7.28l0 3.99c-0.01,0 -0.01,-0 -0.02,-0 -4.93,-0.59 -8.78,4.01 -8.78,4.01 0,0 2.16,7.75 8.8,9.98l0 0zm0 -33.23l0 6.89c0.45,-0.03 0.91,-0.06 1.36,-0.08 17.55,-0.59 28.99,14.4 28.99,14.4 0,0 -13.14,15.97 -26.82,15.97 -1.25,0 -2.43,-0.12 -3.53,-0.31l0 4.26c0.97,0.12 1.96,0.19 2.94,0.19 12.73,0 21.94,-6.5 30.86,-14.2 1.48,1.18 7.53,4.07 8.78,5.33 -8.48,7.1 -28.24,12.82 -39.44,12.82 -1.08,0 -2.12,-0.06 -3.14,-0.16l0 5.99 48.4 0 0 -51.09 -48.4 0zm0 10.63c0.45,-0.03 0.9,-0.06 1.36,-0.07 12.62,-0.4 20.9,10.85 20.9,10.85 0,0 -8.94,12.42 -18.53,12.42 -1.38,0 -2.62,-0.22 -3.73,-0.6l0 -13.99c4.91,0.59 5.9,2.76 8.86,7.69l6.57 -5.54c0,0 -4.8,-6.29 -12.88,-6.29 -0.88,0 -1.72,0.06 -2.55,0.15l0 -4.62z"/>
   </g>
  </g>
 </g>
</svg>
